<svg preserveAspectRatio="none" overflow="visible" style="display: block;" width="28" height="28" viewBox="0 0 28 28" fill="none" xmlns="http://www.w3.org/2000/svg">
<g id="check_circle_24dp_1F1F1F_FILL0_wght400_GRAD0_opsz24 1">
<path id="Vector" d="M12.3667 19.3667L20.5917 11.1417L18.9583 9.50833L12.3667 16.1L9.04167 12.775L7.40833 14.4083L12.3667 19.3667ZM14 25.6667C12.3861 25.6667 10.8694 25.3604 9.45 24.7479C8.03056 24.1354 6.79583 23.3042 5.74583 22.2542C4.69583 21.2042 3.86458 19.9694 3.25208 18.55C2.63958 17.1306 2.33333 15.6139 2.33333 14C2.33333 12.3861 2.63958 10.8694 3.25208 9.45C3.86458 8.03056 4.69583 6.79583 5.74583 5.74583C6.79583 4.69583 8.03056 3.86458 9.45 3.25208C10.8694 2.63958 12.3861 2.33333 14 2.33333C15.6139 2.33333 17.1306 2.63958 18.55 3.25208C19.9694 3.86458 21.2042 4.69583 22.2542 5.74583C23.3042 6.79583 24.1354 8.03056 24.7479 9.45C25.3604 10.8694 25.6667 12.3861 25.6667 14C25.6667 15.6139 25.3604 17.1306 24.7479 18.55C24.1354 19.9694 23.3042 21.2042 22.2542 22.2542C21.2042 23.3042 19.9694 24.1354 18.55 24.7479C17.1306 25.3604 15.6139 25.6667 14 25.6667ZM14 23.3333C16.6056 23.3333 18.8125 22.4292 20.6208 20.6208C22.4292 18.8125 23.3333 16.6056 23.3333 14C23.3333 11.3944 22.4292 9.1875 20.6208 7.37917C18.8125 5.57083 16.6056 4.66667 14 4.66667C11.3944 4.66667 9.1875 5.57083 7.37917 7.37917C5.57083 9.1875 4.66667 11.3944 4.66667 14C4.66667 16.6056 5.57083 18.8125 7.37917 20.6208C9.1875 22.4292 11.3944 23.3333 14 23.3333Z" fill="#16A34A"/>
</g>
</svg>
